<svg xmlns="http://www.w3.org/2000/svg" xmlns:xlink="http://www.w3.org/1999/xlink" contentStyleType="text/css" data-diagram-type="DESCRIPTION" height="934px" preserveAspectRatio="none" style="width:853px;height:934px;background:#FFFFFF;" version="1.1" viewBox="0 0 853 934" width="853px" zoomAndPan="magnify"><?plantuml 1.2026.6?><defs/><g><!--cluster gateway--><g class="cluster" data-qualified-name="gateway" data-source-line="18" id="ent0003"><path d="M27.5,291.39 L379.915,291.39 A3.75,3.75 0 0 1 382.415,293.89 L389.415,313.6869 L568.5,313.6869 A2.5,2.5 0 0 1 571,316.1869 L571,557.58 A2.5,2.5 0 0 1 568.5,560.08 L27.5,560.08 A2.5,2.5 0 0 1 25,557.58 L25,293.89 A2.5,2.5 0 0 1 27.5,291.39" fill="none" style="stroke:#000000;stroke-width:1.5;"/><line style="stroke:#000000;stroke-width:1.5;" x1="25" x2="389.415" y1="313.6869" y2="313.6869"/><text fill="#000000" font-family="sans-serif" font-size="14" font-weight="700" lengthAdjust="spacing" textLength="351.415" x="29" y="306.3851">Gateway tier &#8212; cmd/gateway (cluster client)</text></g><!--cluster backend--><g class="cluster" data-qualified-name="backend" data-source-line="25" id="ent0008"><path d="M8.5,655.08 L379.9326,655.08 A3.75,3.75 0 0 1 382.4326,657.58 L389.4326,677.3769 L526.5,677.3769 A2.5,2.5 0 0 1 529,679.8769 L529,916.77 A2.5,2.5 0 0 1 526.5,919.27 L8.5,919.27 A2.5,2.5 0 0 1 6,916.77 L6,657.58 A2.5,2.5 0 0 1 8.5,655.08" fill="none" style="stroke:#000000;stroke-width:1.5;"/><line style="stroke:#000000;stroke-width:1.5;" x1="6" x2="389.4326" y1="677.3769" y2="677.3769"/><text fill="#000000" font-family="sans-serif" font-size="14" font-weight="700" lengthAdjust="spacing" textLength="370.4326" x="10" y="670.0751">Backend tier &#8212; cmd/backend (cluster member)</text></g><!--entity pub--><g class="entity" data-qualified-name="gateway.pub" data-source-line="19" id="ent0004"><rect fill="#F1F1F1" height="52.5938" rx="2.5" ry="2.5" style="stroke:#181818;stroke-width:0.5;" width="288.6455" x="238.68" y="334.39"/><text fill="#000000" font-family="sans-serif" font-size="14" lengthAdjust="spacing" textLength="143.3428" x="311.3314" y="357.3851">Public listener :8080</text><text fill="#000000" font-family="sans-serif" font-size="14" lengthAdjust="spacing" textLength="268.6455" x="248.68" y="373.682">HTTP commands + WebSocket events</text></g><!--entity ops--><g class="entity" data-qualified-name="gateway.ops" data-source-line="20" id="ent0005"><rect fill="#F1F1F1" height="52.5938" rx="2.5" ry="2.5" style="stroke:#181818;stroke-width:0.5;" width="199.0537" x="49.47" y="483.49"/><text fill="#000000" font-family="sans-serif" font-size="14" lengthAdjust="spacing" textLength="155.8662" x="71.0638" y="506.4851">Internal listener :9090</text><text fill="#000000" font-family="sans-serif" font-size="14" lengthAdjust="spacing" textLength="179.0537" x="59.47" y="522.782">job triggers, GET /metrics</text></g><!--entity uc--><g class="entity" data-qualified-name="gateway.uc" data-source-line="21" id="ent0006"><rect fill="#F1F1F1" height="52.5938" rx="2.5" ry="2.5" style="stroke:#181818;stroke-width:0.5;" width="171.6621" x="303.17" y="483.49"/><text fill="#000000" font-family="sans-serif" font-size="14" lengthAdjust="spacing" textLength="151.6621" x="313.17" y="506.4851">UserConnection actor</text><text fill="#000000" font-family="sans-serif" font-size="14" lengthAdjust="spacing" textLength="136.9102" x="320.546" y="522.782">one per WebSocket</text></g><!--entity cron--><g class="entity" data-qualified-name="gateway.cron" data-source-line="22" id="ent0007"><rect fill="#F1F1F1" height="52.5938" rx="2.5" ry="2.5" style="stroke:#181818;stroke-width:0.5;" width="154.5723" x="48.71" y="334.39"/><text fill="#000000" font-family="sans-serif" font-size="14" lengthAdjust="spacing" textLength="55.9658" x="98.0132" y="357.3851">GC cron</text><text fill="#000000" font-family="sans-serif" font-size="14" lengthAdjust="spacing" textLength="134.5723" x="58.71" y="373.682">(in-process trigger)</text></g><!--entity ug--><g class="entity" data-qualified-name="backend.ug" data-source-line="26" id="ent0009"><rect fill="#F1F1F1" height="52.5938" rx="2.5" ry="2.5" style="stroke:#181818;stroke-width:0.5;" width="182.5313" x="302.73" y="698.08"/><text fill="#000000" font-family="sans-serif" font-size="14" lengthAdjust="spacing" textLength="72.3447" x="357.8233" y="721.0751">User grain</text><text fill="#000000" font-family="sans-serif" font-size="14" lengthAdjust="spacing" textLength="162.5313" x="312.73" y="737.372">one activation per user</text></g><!--entity rg--><g class="entity" data-qualified-name="backend.rg" data-source-line="27" id="ent0010"><rect fill="#F1F1F1" height="52.5938" rx="2.5" ry="2.5" style="stroke:#181818;stroke-width:0.5;" width="188.5195" x="213.74" y="842.68"/><text fill="#000000" font-family="sans-serif" font-size="14" lengthAdjust="spacing" textLength="80.9307" x="267.5344" y="865.6751">Room grain</text><text fill="#000000" font-family="sans-serif" font-size="14" lengthAdjust="spacing" textLength="168.5195" x="223.74" y="881.972">one activation per room</text></g><!--entity mg--><g class="entity" data-qualified-name="backend.mg" data-source-line="28" id="ent0011"><rect fill="#F1F1F1" height="52.5938" rx="2.5" ry="2.5" style="stroke:#181818;stroke-width:0.5;" width="237.376" x="30.31" y="698.08"/><text fill="#000000" font-family="sans-serif" font-size="14" lengthAdjust="spacing" textLength="130.5938" x="83.7011" y="721.0751">Maintenance grain</text><text fill="#000000" font-family="sans-serif" font-size="14" lengthAdjust="spacing" textLength="217.376" x="40.31" y="737.372">one fixed identity, cluster-wide</text></g><!--entity user--><g class="entity" data-qualified-name="user" data-source-line="14" id="ent0001"><ellipse cx="383.0016" cy="14" fill="#F1F1F1" rx="8" ry="8" style="stroke:#181818;stroke-width:0.5;"/><path d="M383.0016,22 L383.0016,49 M370.0016,30 L396.0016,30 M383.0016,49 L370.0016,64 M383.0016,49 L396.0016,64" fill="none" style="stroke:#181818;stroke-width:0.5;"/><text fill="#000000" font-family="sans-serif" font-size="14" lengthAdjust="spacing" textLength="67.7031" x="349.15" y="78.4951">Chat user</text></g><!--entity client--><g class="entity" data-qualified-name="client" data-source-line="16" id="ent0002"><polygon fill="#F1F1F1" points="324.22,152.8,334.22,142.8,441.7737,142.8,441.7737,195.3937,431.7737,205.3937,324.22,205.3937,324.22,152.8" style="stroke:#181818;stroke-width:0.5;stroke-linejoin:miter;stroke-miterlimit:10;"/><line style="stroke:#181818;stroke-width:0.5;" x1="431.7737" x2="441.7737" y1="152.8" y2="142.8"/><line style="stroke:#181818;stroke-width:0.5;" x1="324.22" x2="431.7737" y1="152.8" y2="152.8"/><line style="stroke:#181818;stroke-width:0.5;" x1="431.7737" x2="431.7737" y1="152.8" y2="205.3937"/><text fill="#000000" font-family="sans-serif" font-size="14" lengthAdjust="spacing" textLength="73.3906" x="341.3015" y="175.7951">cmd/client</text><text fill="#000000" font-family="sans-serif" font-size="14" lengthAdjust="spacing" textLength="77.5537" x="339.22" y="192.092">terminal UI</text></g><!--entity db--><g class="entity" data-qualified-name="db" data-source-line="31" id="ent0012"><path d="M594.56,488.99 C594.56,478.99 678.0019,478.99 678.0019,478.99 C678.0019,478.99 761.4438,478.99 761.4438,488.99 L761.4438,530.5838 C761.4438,540.5838 678.0019,540.5838 678.0019,540.5838 C678.0019,540.5838 594.56,540.5838 594.56,530.5838 L594.56,488.99" fill="#F1F1F1" style="stroke:#181818;stroke-width:0.5;"/><path d="M594.56,488.99 C594.56,498.99 678.0019,498.99 678.0019,498.99 C678.0019,498.99 761.4438,498.99 761.4438,488.99" fill="none" style="stroke:#181818;stroke-width:0.5;"/><text fill="#000000" font-family="sans-serif" font-size="14" lengthAdjust="spacing" textLength="80.7529" x="637.6254" y="515.9851">PostgreSQL</text><text fill="#000000" font-family="sans-serif" font-size="14" lengthAdjust="spacing" textLength="146.8838" x="604.56" y="532.282">(+ PGroonga search)</text></g><!--link user to client--><g class="link" data-entity-1="ent0001" data-entity-2="ent0002" data-link-type="dependency" data-source-line="33" id="lnk13"><path d="M383,82.15 C383,101.4 383,119.55 383,137.68" fill="none" id="user-to-client" style="stroke:#181818;stroke-width:1;"/><polygon fill="#181818" points="383,142.68,387,133.68,383,137.68,379,133.68,383,142.68" style="stroke:#181818;stroke-width:1;stroke-linejoin:miter;stroke-miterlimit:10;"/></g><!--link client to pub--><g class="link" data-entity-1="ent0002" data-entity-2="ent0004" data-link-type="dependency" data-source-line="34" id="lnk14"><path d="M383,210.58 C383,246.42 383,295.28 383,328.93" fill="none" id="client-pub" style="stroke:#181818;stroke-width:1;"/><polygon fill="#181818" points="383,205.58,379,214.58,383,210.58,387,214.58,383,205.58" style="stroke:#181818;stroke-width:1;stroke-linejoin:miter;stroke-miterlimit:10;"/><polygon fill="#181818" points="383,333.93,387,324.93,383,328.93,379,324.93,383,333.93" style="stroke:#181818;stroke-width:1;stroke-linejoin:miter;stroke-miterlimit:10;"/><text fill="#000000" font-family="sans-serif" font-size="13" lengthAdjust="spacing" textLength="117.7998" x="385.606" y="248.4569">HTTP commands /</text><text fill="#000000" font-family="sans-serif" font-size="13" lengthAdjust="spacing" textLength="121.0117" x="384" y="263.5897">WebSocket events</text></g><!--link pub to uc--><g class="link" data-entity-1="ent0004" data-entity-2="ent0006" data-link-type="dependency" data-source-line="35" id="lnk15"><path d="M384.05,387.31 C385.15,414.31 386.6656,451.5742 387.7656,478.4642" fill="none" id="pub-to-uc" style="stroke:#181818;stroke-width:1;"/><polygon fill="#181818" points="387.97,483.46,391.5988,474.304,387.7656,478.4642,383.6055,474.631,387.97,483.46" style="stroke:#181818;stroke-width:1;stroke-linejoin:miter;stroke-miterlimit:10;"/><text fill="#000000" font-family="sans-serif" font-size="13" lengthAdjust="spacing" textLength="67.5898" x="408.3381" y="430.0569">spawn per</text><text fill="#000000" font-family="sans-serif" font-size="13" lengthAdjust="spacing" textLength="109.186" x="387.54" y="445.1897">upgraded socket</text></g><!--link cron to ops--><g class="link" data-entity-1="ent0007" data-entity-2="ent0005" data-link-type="dependency" data-source-line="36" id="lnk16"><path d="M130.01,387.31 C134.23,414.31 140.0684,451.6299 144.2684,478.5199" fill="none" id="cron-to-ops" style="stroke:#181818;stroke-width:1;"/><polygon fill="#181818" points="145.04,483.46,147.6032,473.9505,144.2684,478.5199,139.699,475.1851,145.04,483.46" style="stroke:#181818;stroke-width:1;stroke-linejoin:miter;stroke-miterlimit:10;"/><text fill="#000000" font-family="sans-serif" font-size="13" lengthAdjust="spacing" textLength="82.2974" x="140.56" y="437.5569">POST trigger</text></g><!--link uc to ug--><g class="link" data-entity-1="ent0006" data-entity-2="ent0009" data-link-type="dependency" data-source-line="38" id="lnk17"><path d="M389.7174,541.4286 C390.6774,582.2886 392.3127,651.7314 393.2727,692.6414" fill="none" id="uc-ug" style="stroke:#181818;stroke-width:1;"/><polygon fill="#181818" points="389.6,536.43,385.8125,545.5215,389.7174,541.4286,393.8103,545.3336,389.6,536.43" style="stroke:#181818;stroke-width:1;stroke-linejoin:miter;stroke-miterlimit:10;"/><polygon fill="#181818" points="393.39,697.64,397.1778,688.5486,393.2727,692.6414,389.18,688.7363,393.39,697.64" style="stroke:#181818;stroke-width:1;stroke-linejoin:miter;stroke-miterlimit:10;"/><text fill="#000000" font-family="sans-serif" font-size="13" lengthAdjust="spacing" textLength="134.6909" x="392.8" y="597.1469">register connection /</text><text fill="#000000" font-family="sans-serif" font-size="13" lengthAdjust="spacing" textLength="130.4888" x="394.9011" y="612.2797">deliver room events</text><text fill="#000000" font-family="sans-serif" font-size="13" lengthAdjust="spacing" textLength="92.6885" x="413.8012" y="627.4125">(cluster gRPC)</text></g><!--link ug to rg--><g class="link" data-entity-1="ent0009" data-entity-2="ent0010" data-link-type="dependency" data-source-line="39" id="lnk18"><path d="M302.37,750.4 C265.45,761.39 230.25,773.43 225,780.68 C208.74,803.11 227.3342,823.0061 253.1242,839.5861" fill="none" id="ug-to-rg" style="stroke:#181818;stroke-width:1;"/><polygon fill="#181818" points="257.33,842.29,251.9226,834.0584,253.1242,839.5861,247.5964,840.7877,257.33,842.29" style="stroke:#181818;stroke-width:1;stroke-linejoin:miter;stroke-miterlimit:10;"/><text fill="#000000" font-family="sans-serif" font-size="13" lengthAdjust="spacing" textLength="118.606" x="226" y="793.7469">route join / leave /</text><text fill="#000000" font-family="sans-serif" font-size="13" lengthAdjust="spacing" textLength="90.6318" x="239.9871" y="808.8797">post message</text></g><!--reverse link ug to rg--><g class="link" data-entity-1="ent0009" data-entity-2="ent0010" data-link-type="dependency" data-source-line="40" id="lnk20"><path d="M380.0754,755.3171 C371.5554,773.0571 361.53,792.56 349,812.68 C342.75,822.72 335.2,833.26 328.29,842.42" fill="none" id="ug-backto-rg" style="stroke:#181818;stroke-width:1;"/><polygon fill="#181818" points="382.24,750.81,374.7379,757.1911,380.0754,755.3171,381.9493,760.6546,382.24,750.81" style="stroke:#181818;stroke-width:1;stroke-linejoin:miter;stroke-miterlimit:10;"/><text fill="#000000" font-family="sans-serif" font-size="13" lengthAdjust="spacing" textLength="63.3877" x="383.596" y="793.7469">fan out to</text><text fill="#000000" font-family="sans-serif" font-size="13" lengthAdjust="spacing" textLength="95.7798" x="367.4" y="808.8797">every member</text></g><!--link ops to mg--><g class="link" data-entity-1="ent0005" data-entity-2="ent0011" data-link-type="dependency" data-source-line="41" id="lnk21"><path d="M149,536.43 C149,577.29 149,651.73 149,692.64" fill="none" id="ops-to-mg" style="stroke:#181818;stroke-width:1;"/><polygon fill="#181818" points="149,697.64,153,688.64,149,692.64,145,688.64,149,697.64" style="stroke:#181818;stroke-width:1;stroke-linejoin:miter;stroke-miterlimit:10;"/><text fill="#000000" font-family="sans-serif" font-size="13" lengthAdjust="spacing" textLength="105.5679" x="150" y="604.6469">trigger pending-</text><text fill="#000000" font-family="sans-serif" font-size="13" lengthAdjust="spacing" textLength="97.5762" x="153.9958" y="619.7797">account sweep</text></g><!--link gateway to db--><g class="link" data-entity-1="ent0003" data-entity-2="ent0012" data-link-type="dependency" data-source-line="43" id="lnk22"><path d="M571.0778,372.0263 C571.2472,372.2429 571.4188,372.4624 571.5927,372.6847 C572.2882,373.5742 573.0197,374.5097 573.7848,375.4883 C579.9059,383.3166 588.1794,393.8981 597.4038,405.6962 C615.8525,429.2925 635.0255,453.8159 651.4705,474.8509" fill="none" id="gateway-to-db" style="stroke:#181818;stroke-width:1;"/><polygon fill="#181818" points="654.55,478.79,652.1581,469.236,651.4705,474.8509,645.8555,474.1633,654.55,478.79" style="stroke:#181818;stroke-width:1;stroke-linejoin:miter;stroke-miterlimit:10;"/><text fill="#000000" font-family="sans-serif" font-size="13" lengthAdjust="spacing" textLength="117.2285" x="631.8" y="430.0569">auth, registration,</text><text fill="#000000" font-family="sans-serif" font-size="13" lengthAdjust="spacing" textLength="93.2979" x="643.7653" y="445.1897">timeline reads</text></g><!--reverse link db to backend--><g class="link" data-entity-1="ent0012" data-entity-2="ent0008" data-link-type="dependency" data-source-line="44" id="lnk24"><path d="M652.8699,544.8122 C631.5699,573.6572 601.5425,614.3175 573.5225,652.26 C559.5125,671.2313 546.7469,688.5175 537.31,701.2966 C534.9508,704.4913 532.7996,707.4044 530.8891,709.9917 C530.4114,710.6385 529.9488,711.2649 529.5018,711.8703 C529.39,712.0217 529.2792,712.1717 529.1694,712.3204" fill="none" id="db-backto-backend" style="stroke:#181818;stroke-width:1;"/><polygon fill="#181818" points="655.84,540.79,647.276,545.6539,652.8699,544.8122,653.7115,550.4061,655.84,540.79" style="stroke:#181818;stroke-width:1;stroke-linejoin:miter;stroke-miterlimit:10;"/><text fill="#000000" font-family="sans-serif" font-size="13" lengthAdjust="spacing" textLength="143.8125" x="658.8997" y="604.6469">hydrate on activation;</text><text fill="#000000" font-family="sans-serif" font-size="13" lengthAdjust="spacing" textLength="214.1318" x="623.74" y="619.7797">persist membership + messages</text></g><?plantuml-src VLNRRXit47tVhnZiYsL45pycJb7K4GBNgDqgjeo-26YutD4k8owv9RbQ2q61FlK3YdvXlgI7Uv4SfwWVR6auStZEcU7uZExPvEmufs19E5cgm38qZkT-Nr1se7cXGjbaYzQwtLRRrYzgBKneAZq_L9eckPL-SVLkEQyHIixeorz_qp46ZFCv_SHSqmy-21VBA1EEBqcG4HMkFSLRs-YSx9wTKpbJA1bmjWbr4sYhDCTy4YQdpB7OuLm4ajRisGHbpPpMbch7UyKjQIk5reSfkSO0v6CbTaov4eKJbVz84n-XQcKC2BZU04V2q_BcBNbcMjrU_Rn-lBlzxURkwlezAJEmkGDEf78-JyxmTLqgFy8IT1myTPogsXgm8g632aqEjMsfP8aRMR8dVb8-J8TOKEoYpjRuU4arxIIsfQKWzCx7jk1BDQSxzbuKFDEyPqsn5JIvNoqx6_sKh8CAPOefmBP2QRIGQX5AVqvQxN4hH4HluKlNgccy3M9_RzZ8epdp9F4xPMeH5Hs5F8I3PXWbWp25vcSfEMz5eyEQdyALLeMfeco9Nn2L21cietGP6zLuTccqE7v84cFHuLHM-K9gXVHDhAYK4PeURxgyFfuajP0xoARqMWHknQ4pZBxy-G_5wc88JgHkF226ilCEOZpyd11-Jcr9LqscbOGlA34ekdnzyVfYOtvShrSnhK87FBsYNpbxi7B7WJWEcUz0woPx2NSJoKVg9y0t5sy0-Cbc59mg2dReqFNxDIqgHa3sKBRsBw4UuSxIOYvbd6dg7DmO758Ds2EXtadvilfwIT9Pip4JPMQrinWsFnBeBOd7oH_FN7s73tW0NxkQ3S6ZgnLNsGWn7dx-B-w48LAcPmpoQYyw7P7yQGAAbvNtrbR_K-bmt5MwRohlK0FBHHpXPm1RzOINZIs2rH2m1WOTinQX3gageWkv228J7ZQih0-5uuSFjp3l5QskSQSf1Dv7t8czy3nBaYY2PZbUw-pxSKJxF_JT6CQ4q2MbNq_JOcE-6QSaPevLZOn5lXPj9tfZcXg2SiZmVSkJsBjZEcOdvgz-ULYF7Kv1JvveD4LCS5oe_c6SfWfSSevBeRTse0FXOxiBx9NpD0722EPwC6nZfayMgsH1ciMU8rODxp0XtNPA4sJEclfu_rQOkCEnnZO6zxZ3C4jf4XMCy5MNE-Y0V9DZayqsHaXf6tZhM_mBWRxnHOzrUUUqQ4A9LTyfTTtOJB5FL0MD9gujaSFhSMnxSdrXUSYHpzI_j67ata8HtglgH4MglbGrji6WqAV_0W00?></g></svg>