<svg xmlns="http://www.w3.org/2000/svg" xmlns:xlink="http://www.w3.org/1999/xlink" contentStyleType="text/css" data-diagram-type="SEQUENCE" height="830px" preserveAspectRatio="none" style="width:890px;height:830px;background:#FFFFFF;" version="1.1" viewBox="0 0 890 830" width="890px" zoomAndPan="magnify"><?plantuml 1.2026.6?><defs/><g><g class="participant-lifeline" data-entity-uid="part1" data-qualified-name="caller" data-source-line="12" id="part1-lifeline"><g><title>Caller</title><rect fill="#000000" fill-opacity="0.00000" height="270.0625" width="8" x="102.606" y="67.2969"/><line style="stroke:#181818;stroke-width:0.5;stroke-dasharray:5,5;" x1="106" x2="106" y1="67.2969" y2="337.3594"/></g><line style="stroke:#181818;stroke-width:0.5;stroke-dasharray:1,4;" x1="106" x2="106" y1="337.3594" y2="378.1641"/><g><title>Caller</title><rect fill="#000000" fill-opacity="0.00000" height="383.5938" width="8" x="102.606" y="378.1641"/><line style="stroke:#181818;stroke-width:0.5;stroke-dasharray:5,5;" x1="106" x2="106" y1="378.1641" y2="761.7578"/></g></g><g class="participant-lifeline" data-entity-uid="part2" data-qualified-name="placement" data-source-line="13" id="part2-lifeline"><g><title>Cluster placement</title><rect fill="#000000" fill-opacity="0.00000" height="270.0625" width="8" x="336.7324" y="67.2969"/><line style="stroke:#181818;stroke-width:0.5;stroke-dasharray:5,5;" x1="339.8057" x2="339.8057" y1="67.2969" y2="337.3594"/></g><line style="stroke:#181818;stroke-width:0.5;stroke-dasharray:1,4;" x1="339.8057" x2="339.8057" y1="337.3594" y2="378.1641"/><g><title>Cluster placement</title><rect fill="#000000" fill-opacity="0.00000" height="383.5938" width="8" x="336.7324" y="378.1641"/><line style="stroke:#181818;stroke-width:0.5;stroke-dasharray:5,5;" x1="339.8057" x2="339.8057" y1="378.1641" y2="761.7578"/></g></g><g class="participant-lifeline" data-entity-uid="part3" data-qualified-name="grain" data-source-line="14" id="part3-lifeline"><g><title>User grain</title><rect fill="#000000" fill-opacity="0.00000" height="270.0625" width="8" x="627.0166" y="67.2969"/><line style="stroke:#181818;stroke-width:0.5;stroke-dasharray:5,5;" x1="630.8442" x2="630.8442" y1="67.2969" y2="337.3594"/></g><line style="stroke:#181818;stroke-width:0.5;stroke-dasharray:1,4;" x1="630.8442" x2="630.8442" y1="337.3594" y2="378.1641"/><g><title>User grain</title><rect fill="#000000" fill-opacity="0.00000" height="383.5938" width="8" x="627.0166" y="378.1641"/><line style="stroke:#181818;stroke-width:0.5;stroke-dasharray:5,5;" x1="630.8442" x2="630.8442" y1="378.1641" y2="761.7578"/></g></g><g class="participant-lifeline" data-entity-uid="part4" data-qualified-name="db" data-source-line="15" id="part4-lifeline"><g><title>PostgreSQL</title><rect fill="#000000" fill-opacity="0.00000" height="270.0625" width="8" x="832.5063" y="67.2969"/><line style="stroke:#181818;stroke-width:0.5;stroke-dasharray:5,5;" x1="836.1299" x2="836.1299" y1="67.2969" y2="337.3594"/></g><line style="stroke:#181818;stroke-width:0.5;stroke-dasharray:1,4;" x1="836.1299" x2="836.1299" y1="337.3594" y2="378.1641"/><g><title>PostgreSQL</title><rect fill="#000000" fill-opacity="0.00000" height="383.5938" width="8" x="832.5063" y="378.1641"/><line style="stroke:#181818;stroke-width:0.5;stroke-dasharray:5,5;" x1="836.1299" x2="836.1299" y1="378.1641" y2="761.7578"/></g></g><g class="participant participant-head" data-entity-uid="part1" data-qualified-name="caller" data-source-line="12" id="part1-head"><rect fill="#E2E2F0" height="46.5938" rx="2.5" ry="2.5" style="stroke:#181818;stroke-width:0.5;" width="203.2119" x="5" y="19.7031"/><text fill="#000000" font-family="sans-serif" font-size="14" lengthAdjust="spacing" textLength="40.5029" x="86.3545" y="39.6982">Caller</text><text fill="#000000" font-family="sans-serif" font-size="14" lengthAdjust="spacing" textLength="189.2119" x="12" y="55.9951">(gateway or another grain)</text></g><g class="participant participant-tail" data-entity-uid="part1" data-qualified-name="caller" data-source-line="12" id="part1-tail"><rect fill="#E2E2F0" height="46.5938" rx="2.5" ry="2.5" style="stroke:#181818;stroke-width:0.5;" width="203.2119" x="5" y="760.7578"/><text fill="#000000" font-family="sans-serif" font-size="14" lengthAdjust="spacing" textLength="40.5029" x="86.3545" y="780.7529">Caller</text><text fill="#000000" font-family="sans-serif" font-size="14" lengthAdjust="spacing" textLength="189.2119" x="12" y="797.0498">(gateway or another grain)</text></g><g class="participant participant-head" data-entity-uid="part2" data-qualified-name="placement" data-source-line="13" id="part2-head"><rect fill="#E2E2F0" height="46.5938" rx="2.5" ry="2.5" style="stroke:#181818;stroke-width:0.5;" width="179.8535" x="250.8057" y="19.7031"/><text fill="#000000" font-family="sans-serif" font-size="14" lengthAdjust="spacing" textLength="128.4199" x="276.5225" y="39.6982">Cluster placement</text><text fill="#000000" font-family="sans-serif" font-size="14" lengthAdjust="spacing" textLength="165.8535" x="257.8057" y="55.9951">(disthash, per member)</text></g><g class="participant participant-tail" data-entity-uid="part2" data-qualified-name="placement" data-source-line="13" id="part2-tail"><rect fill="#E2E2F0" height="46.5938" rx="2.5" ry="2.5" style="stroke:#181818;stroke-width:0.5;" width="179.8535" x="250.8057" y="760.7578"/><text fill="#000000" font-family="sans-serif" font-size="14" lengthAdjust="spacing" textLength="128.4199" x="276.5225" y="780.7529">Cluster placement</text><text fill="#000000" font-family="sans-serif" font-size="14" lengthAdjust="spacing" textLength="165.8535" x="257.8057" y="797.0498">(disthash, per member)</text></g><g class="participant participant-head" data-entity-uid="part3" data-qualified-name="grain" data-source-line="14" id="part3-head"><rect fill="#E2E2F0" height="46.5938" rx="2.5" ry="2.5" style="stroke:#181818;stroke-width:0.5;" width="86.3447" x="587.8442" y="19.7031"/><text fill="#000000" font-family="sans-serif" font-size="14" lengthAdjust="spacing" textLength="72.3447" x="594.8442" y="39.6982">User grain</text><text fill="#000000" font-family="sans-serif" font-size="14" lengthAdjust="spacing" textLength="69.3369" x="596.3481" y="55.9951">activation</text></g><g class="participant participant-tail" data-entity-uid="part3" data-qualified-name="grain" data-source-line="14" id="part3-tail"><rect fill="#E2E2F0" height="46.5938" rx="2.5" ry="2.5" style="stroke:#181818;stroke-width:0.5;" width="86.3447" x="587.8442" y="760.7578"/><text fill="#000000" font-family="sans-serif" font-size="14" lengthAdjust="spacing" textLength="72.3447" x="594.8442" y="780.7529">User grain</text><text fill="#000000" font-family="sans-serif" font-size="14" lengthAdjust="spacing" textLength="69.3369" x="596.3481" y="797.0498">activation</text></g><g class="participant participant-head" data-entity-uid="part4" data-qualified-name="db" data-source-line="15" id="part4-head"><text fill="#000000" font-family="sans-serif" font-size="14" lengthAdjust="spacing" textLength="80.7529" x="793.1299" y="63.9951">PostgreSQL</text><path d="M818.5063,15 C818.5063,5 836.5063,5 836.5063,5 C836.5063,5 854.5063,5 854.5063,15 L854.5063,41 C854.5063,51 836.5063,51 836.5063,51 C836.5063,51 818.5063,51 818.5063,41 L818.5063,15" fill="#E2E2F0" style="stroke:#181818;stroke-width:0.5;"/><path d="M818.5063,15 C818.5063,25 836.5063,25 836.5063,25 C836.5063,25 854.5063,25 854.5063,15" fill="none" style="stroke:#181818;stroke-width:0.5;"/></g><g class="participant participant-tail" data-entity-uid="part4" data-qualified-name="db" data-source-line="15" id="part4-tail"><text fill="#000000" font-family="sans-serif" font-size="14" lengthAdjust="spacing" textLength="80.7529" x="793.1299" y="773.7529">PostgreSQL</text><path d="M818.5063,787.0547 C818.5063,777.0547 836.5063,777.0547 836.5063,777.0547 C836.5063,777.0547 854.5063,777.0547 854.5063,787.0547 L854.5063,813.0547 C854.5063,823.0547 836.5063,823.0547 836.5063,823.0547 C836.5063,823.0547 818.5063,823.0547 818.5063,813.0547 L818.5063,787.0547" fill="#E2E2F0" style="stroke:#181818;stroke-width:0.5;"/><path d="M818.5063,787.0547 C818.5063,797.0547 836.5063,797.0547 836.5063,797.0547 C836.5063,797.0547 854.5063,797.0547 854.5063,787.0547" fill="none" style="stroke:#181818;stroke-width:0.5;"/></g><rect fill="#EEEEEE" height="3" style="stroke:#EEEEEE;stroke-width:1;" width="884.8828" x="0" y="97.8633"/><line style="stroke:#000000;stroke-width:1;" x1="0" x2="884.8828" y1="97.8633" y2="97.8633"/><line style="stroke:#000000;stroke-width:1;" x1="0" x2="884.8828" y1="100.8633" y2="100.8633"/><rect fill="#EEEEEE" height="23.1328" style="stroke:#000000;stroke-width:2;" width="220.0386" x="332.4221" y="87.2969"/><text fill="#000000" font-family="sans-serif" font-size="13" font-weight="700" lengthAdjust="spacing" textLength="201.5127" x="338.4221" y="103.3638">Activation on first message</text><g class="message" data-entity-1="part1" data-entity-2="part2" data-source-line="18" id="msg1"><polygon fill="#181818" points="328.7324,137.5625,338.7324,141.5625,328.7324,145.5625,332.7324,141.5625" style="stroke:#181818;stroke-width:1;stroke-linejoin:miter;stroke-miterlimit:10;"/><line style="stroke:#181818;stroke-width:1;" x1="106.606" x2="334.7324" y1="141.5625" y2="141.5625"/><text fill="#000000" font-family="sans-serif" font-size="13" lengthAdjust="spacing" textLength="210.1265" x="113.606" y="136.4966">first message for identity "alice"</text></g><g class="message" data-entity-1="part2" data-entity-2="part3" data-source-line="19" id="msg2"><polygon fill="#181818" points="619.0166,166.6953,629.0166,170.6953,619.0166,174.6953,623.0166,170.6953" style="stroke:#181818;stroke-width:1;stroke-linejoin:miter;stroke-miterlimit:10;"/><line style="stroke:#181818;stroke-width:1;" x1="340.7324" x2="625.0166" y1="170.6953" y2="170.6953"/><text fill="#000000" font-family="sans-serif" font-size="13" lengthAdjust="spacing" textLength="266.2842" x="347.7324" y="165.6294">spawn activation on the owning member</text></g><g class="message" data-entity-1="part3" data-entity-2="part3" data-source-line="20" id="msg3"><line style="stroke:#181818;stroke-width:1;" x1="631.0166" x2="673.0166" y1="214.9609" y2="214.9609"/><line style="stroke:#181818;stroke-width:1;" x1="673.0166" x2="673.0166" y1="214.9609" y2="227.9609"/><line style="stroke:#181818;stroke-width:1;" x1="632.0166" x2="673.0166" y1="227.9609" y2="227.9609"/><polygon fill="#181818" points="642.0166,223.9609,632.0166,227.9609,642.0166,231.9609,638.0166,227.9609" style="stroke:#181818;stroke-width:1;stroke-linejoin:miter;stroke-miterlimit:10;"/><text fill="#000000" font-family="sans-serif" font-size="13" lengthAdjust="spacing" textLength="169.3809" x="638.0166" y="194.7622">SetReceiveTimeout(kind's</text><text fill="#000000" font-family="sans-serif" font-size="13" lengthAdjust="spacing" textLength="133.8022" x="638.0166" y="209.895">passivation timeout)</text></g><g class="message" data-entity-1="part3" data-entity-2="part4" data-source-line="21" id="msg4"><polygon fill="#181818" points="824.5063,253.0938,834.5063,257.0938,824.5063,261.0938,828.5063,257.0938" style="stroke:#181818;stroke-width:1;stroke-linejoin:miter;stroke-miterlimit:10;"/><line style="stroke:#181818;stroke-width:1;" x1="631.0166" x2="830.5063" y1="257.0938" y2="257.0938"/><text fill="#000000" font-family="sans-serif" font-size="13" lengthAdjust="spacing" textLength="176.5093" x="638.0166" y="252.0278">hydrate durable state (Init)</text></g><g class="message" data-entity-1="part3" data-entity-2="part1" data-source-line="22" id="msg5"><polygon fill="#181818" points="117.606,282.2266,107.606,286.2266,117.606,290.2266,113.606,286.2266" style="stroke:#181818;stroke-width:1;stroke-linejoin:miter;stroke-miterlimit:10;"/><line style="stroke:#181818;stroke-width:1;stroke-dasharray:2,2;" x1="111.606" x2="630.0166" y1="286.2266" y2="286.2266"/><text fill="#000000" font-family="sans-serif" font-size="13" lengthAdjust="spacing" textLength="59.3315" x="123.606" y="281.1606">response</text></g><rect fill="#EEEEEE" height="3" style="stroke:#EEEEEE;stroke-width:1;" width="884.8828" x="0" y="314.793"/><line style="stroke:#000000;stroke-width:1;" x1="0" x2="884.8828" y1="314.793" y2="314.793"/><line style="stroke:#000000;stroke-width:1;" x1="0" x2="884.8828" y1="317.793" y2="317.793"/><rect fill="#EEEEEE" height="23.1328" style="stroke:#000000;stroke-width:2;" width="134.5801" x="375.1514" y="304.2266"/><text fill="#000000" font-family="sans-serif" font-size="13" font-weight="700" lengthAdjust="spacing" textLength="116.0542" x="381.1514" y="320.2935">Idle passivation</text><text fill="#000000" font-family="sans-serif" font-size="11" lengthAdjust="spacing" textLength="347.3755" x="297.8684" y="361.5698">no messages for the kind's timeout (User: 2 min, Room: 5 min)</text><g class="message" data-entity-1="part3" data-entity-2="part3" data-source-line="26" id="msg6"><line style="stroke:#181818;stroke-width:1;" x1="631.0166" x2="673.0166" y1="399.2969" y2="399.2969"/><line style="stroke:#181818;stroke-width:1;" x1="673.0166" x2="673.0166" y1="399.2969" y2="412.2969"/><line style="stroke:#181818;stroke-width:1;" x1="632.0166" x2="673.0166" y1="412.2969" y2="412.2969"/><polygon fill="#181818" points="642.0166,408.2969,632.0166,412.2969,642.0166,416.2969,638.0166,412.2969" style="stroke:#181818;stroke-width:1;stroke-linejoin:miter;stroke-miterlimit:10;"/><text fill="#000000" font-family="sans-serif" font-size="13" lengthAdjust="spacing" textLength="191.4897" x="638.0166" y="394.231">actor.ReceiveTimeout arrives</text></g><g class="message" data-entity-1="part3" data-entity-2="part3" data-source-line="27" id="msg7"><line style="stroke:#181818;stroke-width:1;" x1="631.0166" x2="673.0166" y1="456.5625" y2="456.5625"/><line style="stroke:#181818;stroke-width:1;" x1="673.0166" x2="673.0166" y1="456.5625" y2="469.5625"/><line style="stroke:#181818;stroke-width:1;" x1="632.0166" x2="673.0166" y1="469.5625" y2="469.5625"/><polygon fill="#181818" points="642.0166,465.5625,632.0166,469.5625,642.0166,473.5625,638.0166,469.5625" style="stroke:#181818;stroke-width:1;stroke-linejoin:miter;stroke-miterlimit:10;"/><text fill="#000000" font-family="sans-serif" font-size="13" lengthAdjust="spacing" textLength="142.8667" x="638.0166" y="436.3638">Poison(self): drain the</text><text fill="#000000" font-family="sans-serif" font-size="13" lengthAdjust="spacing" textLength="121.7988" x="638.0166" y="451.4966">mailbox, then stop</text></g><g class="message" data-entity-1="part2" data-entity-2="part2" data-source-line="28" id="msg8"><line style="stroke:#181818;stroke-width:1;" x1="340.7324" x2="382.7324" y1="498.6953" y2="498.6953"/><line style="stroke:#181818;stroke-width:1;" x1="382.7324" x2="382.7324" y1="498.6953" y2="511.6953"/><line style="stroke:#181818;stroke-width:1;" x1="341.7324" x2="382.7324" y1="511.6953" y2="511.6953"/><polygon fill="#181818" points="351.7324,507.6953,341.7324,511.6953,351.7324,515.6953,347.7324,511.6953" style="stroke:#181818;stroke-width:1;stroke-linejoin:miter;stroke-miterlimit:10;"/><text fill="#000000" font-family="sans-serif" font-size="13" lengthAdjust="spacing" textLength="225.291" x="347.7324" y="493.6294">watch fires Terminated(activation)</text></g><g class="message" data-entity-1="part2" data-entity-2="part2" data-source-line="29" id="msg9"><line style="stroke:#181818;stroke-width:1;" x1="340.7324" x2="382.7324" y1="555.9609" y2="555.9609"/><line style="stroke:#181818;stroke-width:1;" x1="382.7324" x2="382.7324" y1="555.9609" y2="568.9609"/><line style="stroke:#181818;stroke-width:1;" x1="341.7324" x2="382.7324" y1="568.9609" y2="568.9609"/><polygon fill="#181818" points="351.7324,564.9609,341.7324,568.9609,351.7324,572.9609,347.7324,568.9609" style="stroke:#181818;stroke-width:1;stroke-linejoin:miter;stroke-miterlimit:10;"/><text fill="#000000" font-family="sans-serif" font-size="13" lengthAdjust="spacing" textLength="209.3076" x="347.7324" y="535.7622">broadcast ActivationTerminated</text><text fill="#000000" font-family="sans-serif" font-size="13" lengthAdjust="spacing" textLength="216.0488" x="347.7324" y="550.895">so every member forgets the PID</text></g><rect fill="#EEEEEE" height="3" style="stroke:#EEEEEE;stroke-width:1;" width="884.8828" x="0" y="597.5273"/><line style="stroke:#000000;stroke-width:1;" x1="0" x2="884.8828" y1="597.5273" y2="597.5273"/><line style="stroke:#000000;stroke-width:1;" x1="0" x2="884.8828" y1="600.5273" y2="600.5273"/><rect fill="#EEEEEE" height="23.1328" style="stroke:#000000;stroke-width:2;" width="273.981" x="305.4509" y="586.9609"/><text fill="#000000" font-family="sans-serif" font-size="13" font-weight="700" lengthAdjust="spacing" textLength="255.4551" x="311.4509" y="603.0278">Re-activation on the next message</text><g class="message" data-entity-1="part1" data-entity-2="part2" data-source-line="32" id="msg10"><polygon fill="#181818" points="328.7324,637.2266,338.7324,641.2266,328.7324,645.2266,332.7324,641.2266" style="stroke:#181818;stroke-width:1;stroke-linejoin:miter;stroke-miterlimit:10;"/><line style="stroke:#181818;stroke-width:1;" x1="106.606" x2="334.7324" y1="641.2266" y2="641.2266"/><text fill="#000000" font-family="sans-serif" font-size="13" lengthAdjust="spacing" textLength="160.0181" x="113.606" y="636.1606">next message for "alice"</text></g><g class="message" data-entity-1="part2" data-entity-2="part3" data-source-line="33" id="msg11"><polygon fill="#181818" points="619.0166,681.4922,629.0166,685.4922,619.0166,689.4922,623.0166,685.4922" style="stroke:#181818;stroke-width:1;stroke-linejoin:miter;stroke-miterlimit:10;"/><line style="stroke:#181818;stroke-width:1;" x1="340.7324" x2="625.0166" y1="685.4922" y2="685.4922"/><text fill="#000000" font-family="sans-serif" font-size="13" lengthAdjust="spacing" textLength="101.4482" x="347.7324" y="665.2935">fresh activation</text><text fill="#000000" font-family="sans-serif" font-size="13" lengthAdjust="spacing" textLength="197.4121" x="347.7324" y="680.4263">(possibly on another member)</text></g><g class="message" data-entity-1="part3" data-entity-2="part4" data-source-line="34" id="msg12"><polygon fill="#181818" points="824.5063,710.625,834.5063,714.625,824.5063,718.625,828.5063,714.625" style="stroke:#181818;stroke-width:1;stroke-linejoin:miter;stroke-miterlimit:10;"/><line style="stroke:#181818;stroke-width:1;" x1="631.0166" x2="830.5063" y1="714.625" y2="714.625"/><text fill="#000000" font-family="sans-serif" font-size="13" lengthAdjust="spacing" textLength="90.7588" x="638.0166" y="709.5591">hydrate again</text></g><g class="message" data-entity-1="part3" data-entity-2="part1" data-source-line="35" id="msg13"><polygon fill="#181818" points="117.606,739.7578,107.606,743.7578,117.606,747.7578,113.606,743.7578" style="stroke:#181818;stroke-width:1;stroke-linejoin:miter;stroke-miterlimit:10;"/><line style="stroke:#181818;stroke-width:1;stroke-dasharray:2,2;" x1="111.606" x2="630.0166" y1="743.7578" y2="743.7578"/><text fill="#000000" font-family="sans-serif" font-size="13" lengthAdjust="spacing" textLength="59.3315" x="123.606" y="738.6919">response</text></g><?plantuml-src ZLJRRjH037tFLrZxibcqJIKaNeAAA0MX5IqgRNbRYJg9Dnar6KVZoORz0Jw0J-HBy6HlAIs8n_4SUtoEZsSADsGBSbI0PsXHnApH6xQ9h4l8Df2KnbTTTjgpUrZLtCjfMwFrNLCdcwQ6kE1SJi_VNIIjXg8f_Fhn4munhJ5Bu1DH2s_5emjfaA6Z510iDlhgCTvpLnV0QtBE50I-8Yt7dMyx3ojJKy03sW8oH_YWz-WXPxicE_GBTzg_exMX7chEiQutSt2TrIBt3JuG50PBXutSGooXL6kirGRSbhy35BXOl0OXWklByyztNwykloskpZz-06DttLnfdT3AB8ccUhpbpkK4l0BlEb-b0GKbMNBejRA-ffczmxRLyh5UdBxuDWIJDajAJaC9yZUKardJdMb8sG9R62IPmpKROHiBrQjP2B_0tBDB7kDdGH8jr3hsF01EIfwAiXLLI2hGSUNKg4WmtCwXhqnUGOy-hqY0K0zwinkxLjfAp5ZaA5xW_71tHwunTg3MLsJ1UEsKMqcYgDM6JMvQTGPCBbHxSaiRbuhjSGEiubfMSTnMazaaY9qFi3zIwqwymWvDQvKzapa46HjgCdBR2WVKuo9VPV_GqXwP3Hb3D2hGOuP2CBbcyQMZso-NmtMHHT7PsOXoa7rbd7XzLmHBWhEpQDiudBmPQPl-0LifPtMnMjDlO8AroMaI7U6QktL72j9YRqSJ24y67t5lZIrtVACjUfJsn3ZnWx75L9PsjCJWToOvvXUP9bUR8bWKYivXLbCmd9xYXJL7g69tH5FT4MdP2WtgB0hD63-YaYH90fRtx6MW7qXiUzgt0N4OJGelGNqqXnlc9eLNuJ03hV2Kv7E61zJ_OKto53tUbnIA8QfDB6s3fixu-poSxE3PnwCOZt7OYp1CPN4qV7oSp-plkOUjUNPfbbOOIB-tpMweGQMITCM2KjUBzuEwDtJor0kMll-70n-XmWJ-wRkLCXnllcvQophKhDw4P_SBkzktlnW8ox1F_t3CRm00?></g></svg>